<?xml version="1.0" encoding="UTF-8"?>
<svg xmlns="http://www.w3.org/2000/svg" xmlns:xlink="http://www.w3.org/1999/xlink" version="1.1" id="Ebene_2_00000083795640538132871410000005926705507449502871_" x="0px" y="0px" viewBox="0 0 683.1 134" style="enable-background:new 0 0 683.1 134;" xml:space="preserve">
<style type="text/css">
	.st0{fill:#66FFCC;}
</style>
<g id="Secondary_Logo">
	<g>
		<g>
			<g>
				<path class="st0" d="M56.4,22.5H44.7c-0.3-1.9-1-3.6-1.8-5.1c-0.9-1.5-2-2.8-3.3-3.8s-2.8-1.8-4.5-2.4s-3.5-0.8-5.5-0.8      c-3.5,0-6.6,0.9-9.2,2.6s-4.8,4.3-6.3,7.6c-1.5,3.3-2.3,7.4-2.3,12.2s0.8,9,2.3,12.4s3.6,5.9,6.3,7.6c2.7,1.7,5.8,2.5,9.2,2.5      c1.9,0,3.7-0.3,5.4-0.8c1.7-0.5,3.2-1.3,4.5-2.3s2.5-2.2,3.4-3.7s1.6-3.1,1.9-5l11.7,0.1c-0.4,3-1.4,5.9-2.8,8.6s-3.3,5-5.7,7      c-2.3,2-5.1,3.6-8.2,4.7c-3.1,1.1-6.6,1.7-10.4,1.7c-5.6,0-10.6-1.3-15.1-3.9c-4.4-2.6-7.9-6.4-10.4-11.3      C1.3,45.6,0,39.7,0,32.9s1.3-12.8,3.8-17.7c2.6-4.9,6.1-8.7,10.5-11.3c4.4-2.6,9.4-3.9,15-3.9c3.6,0,6.9,0.5,9.9,1.5      c3.1,1,5.8,2.5,8.2,4.4c2.4,1.9,4.4,4.3,5.9,7.1S55.9,18.9,56.4,22.5L56.4,22.5z"></path>
			</g>
			<g>
				<path class="st0" d="M77.5,36.8v28.1H66.1v-64h11.1V25h0.6c1.1-2.7,2.9-4.9,5.2-6.4s5.4-2.4,9.1-2.4c3.3,0,6.2,0.7,8.7,2.1      c2.5,1.4,4.4,3.4,5.8,6.1c1.4,2.7,2.1,6,2.1,9.9v30.6H97.3V36.1c0-3.2-0.8-5.8-2.5-7.5c-1.7-1.8-4-2.7-7-2.7      c-2,0-3.8,0.4-5.4,1.3s-2.8,2.1-3.7,3.7S77.4,34.5,77.5,36.8L77.5,36.8z"></path>
			</g>
			<g>
				<path class="st0" d="M140.9,65.8c-4.8,0-9-1-12.5-3c-3.5-2-6.2-4.9-8.1-8.6c-1.9-3.7-2.8-8.1-2.8-13.1s0.9-9.3,2.8-13      s4.5-6.7,7.9-8.8c3.4-2.1,7.4-3.1,12-3.1c3,0,5.8,0.5,8.4,1.4c2.6,1,5,2.4,7,4.4s3.6,4.5,4.8,7.6s1.8,6.7,1.8,10.9V44h-39.4      v-7.6h28.5c0-2.2-0.5-4.1-1.4-5.8s-2.2-3-3.8-4s-3.5-1.5-5.7-1.5c-2.3,0-4.4,0.6-6.1,1.7s-3.1,2.6-4.1,4.4      c-1,1.8-1.5,3.8-1.5,5.9v6.7c0,2.8,0.5,5.2,1.5,7.2s2.4,3.5,4.3,4.6c1.8,1,4,1.6,6.4,1.6c1.6,0,3.1-0.2,4.5-0.7s2.5-1.2,3.5-2.1      c1-0.9,1.7-2,2.2-3.4l10.6,1.2c-0.7,2.8-1.9,5.2-3.8,7.3c-1.9,2.1-4.2,3.7-7.1,4.8C147.9,65.2,144.6,65.8,140.9,65.8L140.9,65.8      z"></path>
			</g>
			<g>
				<path class="st0" d="M192.3,65.8c-4.8,0-8.9-1.1-12.3-3.2c-3.4-2.1-6.1-5-7.9-8.7c-1.8-3.7-2.8-8-2.8-12.9s0.9-9.2,2.8-12.9      c1.9-3.7,4.5-6.7,8-8.8c3.4-2.1,7.5-3.1,12.2-3.1c3.9,0,7.4,0.7,10.4,2.1s5.4,3.4,7.2,6c1.8,2.6,2.8,5.6,3.1,9.1h-10.8      c-0.4-2.3-1.5-4.2-3.1-5.8s-3.8-2.3-6.6-2.3c-2.3,0-4.3,0.6-6.1,1.9c-1.8,1.2-3.1,3-4.1,5.3s-1.4,5.1-1.4,8.3s0.5,6.1,1.4,8.4      c1,2.3,2.3,4.2,4.1,5.4s3.8,1.9,6.1,1.9c1.7,0,3.2-0.3,4.5-1c1.3-0.6,2.4-1.6,3.3-2.8c0.9-1.2,1.5-2.7,1.8-4.4h10.8      c-0.3,3.4-1.3,6.4-3,9s-4.1,4.7-7.1,6.1C199.9,65.1,196.4,65.8,192.3,65.8L192.3,65.8z"></path>
			</g>
			<g>
				<path class="st0" d="M221.8,64.9v-64h11.3v64H221.8L221.8,64.9z M232.1,49.8l0-13.7h1.8l17.2-19.3h13.2l-21.2,23.6h-2.3      L232.1,49.8L232.1,49.8z M251.9,64.9L236.3,43l7.6-8l21.5,29.8H251.9L251.9,64.9z"></path>
			</g>
			<g>
				<path class="st0" d="M271.4,64.9v-48h10.8V25h0.6c1-2.8,2.7-4.9,5-6.5c2.3-1.5,5.1-2.3,8.3-2.3s6,0.8,8.2,2.4s3.8,3.7,4.7,6.4      h0.5c1.1-2.7,2.9-4.8,5.4-6.4c2.5-1.6,5.5-2.4,9-2.4c4.4,0,8,1.4,10.8,4.2c2.8,2.8,4.2,6.9,4.2,12.2v32.2h-11.4V34.4      c0-3-0.8-5.2-2.4-6.5c-1.6-1.4-3.5-2.1-5.8-2.1c-2.7,0-4.9,0.9-6.4,2.5c-1.5,1.7-2.3,3.9-2.3,6.6v30h-11.1v-31      c0-2.5-0.8-4.5-2.2-5.9c-1.5-1.5-3.4-2.2-5.8-2.2c-1.6,0-3.1,0.4-4.4,1.2c-1.3,0.8-2.4,2-3.2,3.5s-1.2,3.2-1.2,5.2v29.2      L271.4,64.9L271.4,64.9z"></path>
			</g>
			<g>
				<path class="st0" d="M350,64.9v-64h11.3v64H350z M360.3,49.8l0-13.7h1.8l17.2-19.3h13.2l-21.2,23.6H369L360.3,49.8L360.3,49.8z       M380.1,64.9L364.5,43l7.6-8l21.5,29.8H380.1z"></path>
			</g>
			<g>
				<path class="st0" d="M45.2,95.7h-5c-0.4-1.9-1-3.6-2-5.2s-2.2-3-3.6-4.2c-1.5-1.2-3.1-2.1-4.9-2.8c-1.8-0.7-3.8-1-6-1      c-3.4,0-6.6,0.9-9.4,2.7s-5.1,4.4-6.8,7.9s-2.5,7.7-2.5,12.7s0.8,9.3,2.5,12.8s4,6.1,6.8,7.8c2.8,1.8,6,2.7,9.4,2.7      c2.1,0,4.1-0.3,6-1c1.8-0.7,3.5-1.6,4.9-2.8s2.7-2.6,3.6-4.2s1.6-3.3,2-5.2h5c-0.4,2.5-1.3,4.8-2.5,7c-1.2,2.2-2.8,4-4.6,5.7      c-1.9,1.6-4,2.9-6.4,3.8c-2.4,0.9-5.1,1.4-8,1.4c-4.6,0-8.6-1.1-12.2-3.4c-3.5-2.3-6.3-5.5-8.3-9.7c-2-4.2-3-9.1-3-14.8      s1-10.6,3-14.8c2-4.2,4.8-7.4,8.3-9.7S19,78,23.6,78c2.9,0,5.6,0.4,8,1.3s4.6,2.2,6.4,3.8c1.9,1.6,3.4,3.5,4.6,5.7      C43.9,90.9,44.7,93.2,45.2,95.7L45.2,95.7z"></path>
			</g>
			<g>
				<path class="st0" d="M71.3,134c-3.5,0-6.6-0.9-9.3-2.7s-4.8-4.3-6.3-7.4c-1.5-3.2-2.3-6.8-2.3-11s0.8-7.9,2.3-11      c1.5-3.2,3.6-5.7,6.3-7.4c2.7-1.8,5.8-2.7,9.3-2.7s6.6,0.9,9.3,2.7c2.7,1.8,4.8,4.3,6.3,7.4c1.5,3.2,2.3,6.8,2.3,11      s-0.8,7.8-2.3,11s-3.6,5.6-6.3,7.4S74.9,134,71.3,134z M71.3,129.6c2.8,0,5.2-0.8,7.2-2.3c2-1.5,3.5-3.6,4.5-6.1      c1-2.5,1.5-5.3,1.5-8.4S84,107,83,104.5s-2.5-4.6-4.5-6.1S74.2,96,71.3,96s-5.2,0.8-7.2,2.3c-2,1.5-3.5,3.6-4.5,6.1      c-1,2.6-1.5,5.3-1.5,8.4s0.5,5.8,1.5,8.4s2.5,4.6,4.5,6.1C66.1,128.9,68.5,129.6,71.3,129.6z"></path>
			</g>
			<g>
				<path class="st0" d="M104.1,107.6v25.5h-4.7V92.3h4.6v6.4h0.4c1-2.1,2.4-3.8,4.5-5c2-1.3,4.5-1.9,7.5-1.9c2.8,0,5.2,0.6,7.2,1.7      c2.1,1.1,3.7,2.8,4.9,5c1.2,2.2,1.7,4.9,1.7,8.2v26.4h-4.7V107c0-3.3-0.9-6-2.8-7.9c-1.9-1.9-4.4-2.9-7.5-2.9      c-2.1,0-4.1,0.5-5.7,1.4c-1.7,0.9-3,2.2-3.9,4C104.5,103.2,104.1,105.2,104.1,107.6z"></path>
			</g>
			<g>
				<path class="st0" d="M159.1,92.3v4.1h-20.1v-4.1H159.1z M145.3,133.1V86.3c0-2.2,0.5-4.1,1.5-5.6c1-1.5,2.4-2.7,4-3.4      s3.4-1.2,5.2-1.2c1.2,0,2.3,0.1,3.1,0.3c0.8,0.2,1.5,0.4,1.9,0.6l-1.4,4.1c-0.4-0.1-0.8-0.2-1.3-0.4c-0.5-0.1-1.2-0.2-1.9-0.2      c-2.1,0-3.6,0.6-4.8,1.7s-1.7,2.8-1.7,4.9l0,45.8L145.3,133.1L145.3,133.1z"></path>
			</g>
			<g>
				<path class="st0" d="M183,134c-3.8,0-7.1-0.9-9.9-2.7s-4.9-4.2-6.4-7.4c-1.5-3.2-2.3-6.8-2.3-10.9s0.8-7.8,2.3-11      s3.6-5.7,6.3-7.5c2.7-1.8,5.8-2.7,9.3-2.7c2.2,0,4.4,0.4,6.4,1.2c2.1,0.8,3.9,2,5.5,3.7c1.6,1.7,2.9,3.7,3.9,6.2      c1,2.5,1.4,5.5,1.4,8.9v2.3h-31.9V110h27.1c0-2.6-0.5-5-1.6-7.1s-2.5-3.8-4.4-5c-1.9-1.2-4-1.8-6.5-1.8c-2.6,0-4.9,0.7-6.8,2.1      s-3.5,3.2-4.6,5.5c-1.1,2.3-1.7,4.8-1.7,7.4v2.5c0,3.2,0.6,6.1,1.7,8.5c1.1,2.4,2.7,4.3,4.8,5.6c2.1,1.3,4.5,2,7.4,2      c1.9,0,3.6-0.3,5.1-0.9c1.5-0.6,2.7-1.4,3.7-2.4s1.8-2.1,2.3-3.4l4.5,1.5c-0.6,1.7-1.6,3.3-3,4.8c-1.4,1.4-3.2,2.6-5.3,3.5      C188.1,133.5,185.7,134,183,134L183,134z"></path>
			</g>
			<g>
				<path class="st0" d="M209.6,133.1V92.3h4.6v6.3h0.4c0.8-2.1,2.2-3.7,4.3-5c2-1.3,4.3-1.9,6.9-1.9c0.4,0,0.8,0,1.3,0      s0.9,0,1.2,0.1v4.8c-0.2,0-0.6-0.1-1.1-0.2s-1.1-0.1-1.7-0.1c-2.1,0-4,0.4-5.7,1.3c-1.7,0.9-3,2.1-3.9,3.7      c-1,1.6-1.4,3.4-1.4,5.4v26.4L209.6,133.1L209.6,133.1z"></path>
			</g>
			<g>
				<path class="st0" d="M251.1,134c-3.8,0-7.1-0.9-9.9-2.7s-4.9-4.2-6.4-7.4s-2.3-6.8-2.3-10.9s0.8-7.8,2.3-11s3.6-5.7,6.3-7.5      c2.7-1.8,5.8-2.7,9.3-2.7c2.2,0,4.4,0.4,6.4,1.2c2,0.8,3.9,2,5.5,3.7c1.6,1.7,2.9,3.7,3.9,6.2c1,2.5,1.4,5.5,1.4,8.9v2.3h-31.9      V110h27c0-2.6-0.5-5-1.6-7.1s-2.5-3.8-4.4-5c-1.9-1.2-4-1.8-6.5-1.8c-2.6,0-4.9,0.7-6.8,2.1s-3.5,3.2-4.6,5.5      c-1.1,2.3-1.7,4.8-1.7,7.4v2.5c0,3.2,0.6,6.1,1.7,8.5c1.1,2.4,2.7,4.3,4.8,5.6c2.1,1.3,4.5,2,7.4,2c1.9,0,3.6-0.3,5.1-0.9      c1.5-0.6,2.7-1.4,3.7-2.4s1.8-2.1,2.3-3.4l4.5,1.5c-0.6,1.7-1.6,3.3-3,4.8c-1.4,1.4-3.2,2.6-5.3,3.5      C256.2,133.5,253.8,134,251.1,134L251.1,134z"></path>
			</g>
			<g>
				<path class="st0" d="M282.4,107.6v25.5h-4.7V92.3h4.6v6.4h0.4c1-2.1,2.5-3.8,4.5-5c2-1.3,4.5-1.9,7.5-1.9c2.8,0,5.2,0.6,7.2,1.7      s3.7,2.8,4.9,5c1.2,2.2,1.7,4.9,1.7,8.2v26.4h-4.7V107c0-3.3-0.9-6-2.8-7.9c-1.9-1.9-4.4-2.9-7.5-2.9c-2.1,0-4,0.5-5.7,1.4      c-1.7,0.9-3,2.2-4,4C282.9,103.2,282.4,105.2,282.4,107.6L282.4,107.6z"></path>
			</g>
			<g>
				<path class="st0" d="M336.6,134c-3.6,0-6.8-0.9-9.5-2.7c-2.7-1.8-4.8-4.3-6.3-7.5c-1.5-3.2-2.2-6.8-2.2-10.8s0.8-7.7,2.3-10.9      c1.5-3.2,3.6-5.7,6.3-7.5s5.8-2.7,9.4-2.7c2.7,0,5.2,0.5,7.4,1.6s4,2.5,5.5,4.4s2.4,4.1,2.7,6.7h-4.8c-0.5-2.3-1.7-4.3-3.6-5.9      c-1.9-1.6-4.3-2.5-7.2-2.5c-2.6,0-4.9,0.7-6.9,2.1s-3.6,3.4-4.7,5.9c-1.1,2.5-1.7,5.4-1.7,8.7s0.5,6.2,1.6,8.8s2.6,4.5,4.6,6      c2,1.4,4.3,2.1,7,2.1c1.8,0,3.5-0.3,5-1c1.5-0.7,2.8-1.7,3.8-2.9s1.7-2.8,2.1-4.5h4.8c-0.4,2.5-1.2,4.7-2.6,6.6      c-1.4,1.9-3.2,3.4-5.4,4.5S339.4,134,336.6,134L336.6,134z"></path>
			</g>
			<g>
				<path class="st0" d="M378.4,134c-3.8,0-7.1-0.9-9.9-2.7s-4.9-4.2-6.4-7.4s-2.3-6.8-2.3-10.9s0.8-7.8,2.3-11s3.6-5.7,6.3-7.5      c2.7-1.8,5.8-2.7,9.3-2.7c2.2,0,4.4,0.4,6.4,1.2s3.9,2,5.5,3.7c1.6,1.7,2.9,3.7,3.9,6.2c1,2.5,1.4,5.5,1.4,8.9v2.3h-31.9V110h27      c0-2.6-0.5-5-1.6-7.1s-2.5-3.8-4.4-5c-1.9-1.2-4-1.8-6.5-1.8c-2.6,0-4.9,0.7-6.8,2.1s-3.5,3.2-4.6,5.5c-1.1,2.3-1.7,4.8-1.7,7.4      v2.5c0,3.2,0.6,6.1,1.7,8.5c1.1,2.4,2.7,4.3,4.8,5.6c2.1,1.3,4.5,2,7.4,2c1.9,0,3.6-0.3,5.1-0.9c1.5-0.6,2.7-1.4,3.7-2.4      s1.8-2.1,2.3-3.4l4.5,1.5c-0.6,1.7-1.6,3.3-3,4.8c-1.4,1.4-3.2,2.6-5.3,3.5C383.6,133.5,381.1,134,378.4,134L378.4,134z"></path>
			</g>
		</g>
		<g>
			<g>
				<path class="st0" d="M409,94.6l1.6-9.6H506l-1.6,9.6H409z M416.4,50.2l1.6-9.6h95.4l-1.6,9.6H416.4z M423.4,131.5l21-127.9h9.7      l-21,127.9H423.4L423.4,131.5z M468.4,131.5l21-127.9h9.7l-21,127.9H468.4L468.4,131.5z"></path>
			</g>
			<g>
				<path class="st0" d="M570.4,3.5v128h-11.7V15.7H558l-30,19.9V23.5l30.2-20.1H570.4z"></path>
				<path class="st0" d="M640.3,133.2c-9,0-16.7-2.6-23-7.8c-6.4-5.2-11.2-12.7-14.6-22.5c-3.4-9.8-5.1-21.6-5.1-35.4      c0-13.8,1.7-25.5,5.1-35.3c3.4-9.8,8.3-17.3,14.7-22.6c6.4-5.2,14.1-7.8,23-7.8c8.9,0,16.6,2.6,23,7.8      c6.4,5.2,11.3,12.7,14.7,22.6c3.4,9.8,5.1,21.6,5.1,35.3c0,13.8-1.7,25.6-5.1,35.4c-3.4,9.8-8.3,17.3-14.6,22.5      C657,130.6,649.3,133.2,640.3,133.2z M640.3,122.7c9.9,0,17.6-4.8,23.1-14.5c5.5-9.6,8.3-23.2,8.3-40.8      c0-11.7-1.3-21.6-3.8-29.9c-2.5-8.3-6.1-14.6-10.8-19S646.8,12,640.3,12c-9.8,0-17.5,4.9-23.1,14.6c-5.6,9.7-8.4,23.3-8.4,40.8      c0,11.7,1.3,21.6,3.8,29.9c2.5,8.2,6.1,14.5,10.8,18.9C628.1,120.6,633.7,122.7,640.3,122.7z"></path>
			</g>
		</g>
	</g>
</g>
</svg>
